<?xml version="1.0" encoding="UTF-8"?>
<svg id="Layer_2" data-name="Layer 2" xmlns="http://www.w3.org/2000/svg" viewBox="0 0 462.48 258.36">
  <defs>
    <style>
      .cls-1 {
        fill: none;
        opacity: .36;
      }

      .cls-1, .cls-2, .cls-3 {
        stroke: #231f20;
        stroke-miterlimit: 10;
      }

      .cls-2, .cls-3 {
        fill: #231f20;
      }

      .cls-3 {
        opacity: .81;
      }
    </style>
  </defs>
  <g id="Layer_2-2" data-name="Layer 2">
    <polygon class="cls-3" points="100.12 214.97 124.96 257.86 75.39 257.86 50.54 214.97 25.69 172.07 25.01 170.88 .85 129.18 .58 128.72 26.12 87.23 26.12 87.22 26.69 86.29 53.09 43.39 79.49 .5 129.85 .5 103.46 43.39 77.06 86.29 50.67 129.18 50.42 129.18 50.54 129.38 50.54 129.39 75.26 172.07 75.27 172.07 100.11 214.97 100.12 214.97"/>
    <polyline class="cls-1" points="50.54 129.39 75.27 172.07 100.12 214.97"/>
    <polygon class="cls-2" points="335.04 .5 308.64 43.39 282.24 86.29 255.85 129.18 229.46 172.07 203.06 214.97 176.67 257.86 126.3 257.86 152.69 214.97 179.09 172.07 205.49 129.18 231.88 86.29 258.28 43.39 284.67 .5 335.04 .5"/>
    <polygon class="cls-3" points="461.89 127.75 461 129.18 436.35 169.24 434.61 172.07 408.21 214.97 381.82 257.86 331.45 257.86 357.85 214.97 384.25 172.07 410.64 129.18 413.15 129.18 411.93 127.08 388.3 86.29 363.45 43.39 338.61 .5 388.18 .5 413.02 43.39 437.47 85.59 437.03 86.29 437.87 86.29 461.89 127.75"/>
    <polygon class="cls-2" points="206.44 43.39 156.87 43.39 132.02 .5 181.6 .5 196.13 25.59 206.44 43.39"/>
    <polygon class="cls-2" points="330.68 257.86 281.1 257.86 256.26 214.97 231.41 172.07 280.99 172.07 305.83 214.97 305.84 214.97 330.68 257.86"/>
  </g>
</svg>