<?xml version="1.0" encoding="UTF-8"?>
<svg id="Layer_2" data-name="Layer 2" xmlns="http://www.w3.org/2000/svg" viewBox="0 0 700.75 231.17">
  <defs>
    <style>
      .cls-1 {
        fill: #ff4f00;
      }
    </style>
  </defs>
  <g id="Layer_2-2" data-name="Layer 2" fill="#ffffff">
    <path d="M35.91,197.67h86.61v30.78H0V19.92h118.6v30.78H35.91v60.66h1.81c4.53-7.54,8.15-14.49,21.73-14.49h35.91v30.48h-59.45v70.32Z"/>
    <path d="M133.69,0h33.2v228.45h-33.2V0Z"/>
    <path d="M186.81,67.29v161.16h33.5V67.29h-33.5Z"/>
    <path class="cls-1" d="M227.25,28.06c0,17.81-11.77,24.75-23.84,24.75s-23.54-6.94-23.54-24.75,11.77-24.74,23.54-24.74,23.84,6.94,23.84,24.74Z"/>
    <path d="M354.9,67.3h31.99l-55.53,163.87h-35.01l-55.53-163.87h35.01l38.03,111.36h3.02l38.03-111.36Z"/>
    <path d="M529.03,159.95h-94.76c3.62,23.54,18.11,40.44,44.06,40.44s35.31-11.17,48.29-29.58l29.27,15.39c-23.84,34.1-43.46,44.97-77.56,44.97-40.14,0-79.67-23.84-79.67-83.29s39.53-83.29,79.67-83.29c34.71,0,68.81,17.5,77.56,60.96l-26.86,34.4ZM521.18,129.47c-5.13-20.22-19.31-34.4-42.85-34.4s-37.72,14.18-42.85,34.4h85.71Z"/>
    <path d="M641.3,142.14l59.45,89.03h-40.14l-37.42-56.13-35.61,56.13h-36.21l36.52-57.34c5.13-7.85,13.58-12.67,22.63-12.67l.3.3v-5.13l-59.45-89.03h39.84l37.42,55.83,35.61-55.83h36.52l-36.82,57.34c-4.83,7.85-13.28,12.37-22.63,12.37v5.13Z"/>
  </g>
</svg>